<svg xmlns="http://www.w3.org/2000/svg" viewBox="0 0 760 360" font-family="DejaVu Sans, sans-serif">
<defs><marker id="a" markerWidth="7" markerHeight="7" refX="6" refY="3.5" orient="auto">
<path d="M0,0 L7,3.5 L0,7 z" fill="#1A1A2E"/></marker></defs>
<rect width="760" height="360" fill="#FAFAF7"/>
<text x="20" y="34" font-size="17" font-weight="700" fill="#1A1A2E">Comment ça marche : national + lecture locale, choisi par validation croisée</text>
<rect x="20" y="64" width="150" height="74" rx="9" fill="#FAFAF7" stroke="#1A1A2E" stroke-width="1.4"/><text x="95" y="96" text-anchor="middle" font-size="14" font-weight="600" fill="#1A1A2E">National</text><text x="95" y="118" text-anchor="middle" font-size="10.5" fill="#555">sondages · participation</text><rect x="205" y="64" width="150" height="74" rx="9" fill="#FAFAF7" stroke="#1A1A2E" stroke-width="1.4"/><text x="280" y="96" text-anchor="middle" font-size="14" font-weight="600" fill="#1A1A2E">+ Écart local</text><text x="280" y="118" text-anchor="middle" font-size="10.5" fill="#555">démographie INSEE · vote passé</text><rect x="390" y="64" width="150" height="74" rx="9" fill="#FAFAF7" stroke="#1A1A2E" stroke-width="1.4"/><text x="465" y="96" text-anchor="middle" font-size="14" font-weight="600" fill="#1A1A2E">Prédiction</text><text x="465" y="118" text-anchor="middle" font-size="10.5" fill="#555">du bureau de vote</text><rect x="575" y="64" width="150" height="74" rx="9" fill="#FAFAF7" stroke="#1A1A2E" stroke-width="1.4"/><text x="650" y="96" text-anchor="middle" font-size="14" font-weight="600" fill="#1A1A2E">Intervalle</text><text x="650" y="118" text-anchor="middle" font-size="10.5" fill="#555">conforme 80/90/95</text><line x1="170" y1="101" x2="205" y2="101" stroke="#1A1A2E" stroke-width="1.4" marker-end="url(#a)"/><line x1="355" y1="101" x2="390" y2="101" stroke="#1A1A2E" stroke-width="1.4" marker-end="url(#a)"/><line x1="540" y1="101" x2="575" y2="101" stroke="#1A1A2E" stroke-width="1.4" marker-end="url(#a)"/>
<text x="20" y="184" font-size="13" font-weight="600" fill="#1A1A2E">Validation croisée par scrutin, puis un test unique</text>
<line x1="60.0" y1="232" x2="712.0" y2="232" stroke="#ddd" stroke-width="1"/>
<circle cx="60.0" cy="232" r="6" fill="#1A1A2E" opacity="0.85"/><circle cx="205.45454545454547" cy="232" r="6" fill="#1A1A2E" opacity="0.85"/><circle cx="496.3636363636364" cy="232" r="6" fill="#1A1A2E" opacity="0.85"/><circle cx="641.8181818181819" cy="232" r="6" fill="#1A1A2E" opacity="0.85"/>
<circle cx="350.90909090909093" cy="232" r="6" fill="#FAFAF7" stroke="#6A4C93" stroke-width="2"/>
<text x="350.90909090909093" y="213" text-anchor="middle" font-size="9.5" fill="#6A4C93">retiré</text>
<path d="M54.0 250 V256 H647.8181818181819 V250" fill="none" stroke="#999" stroke-width="1"/>
<text x="350.90909090909093" y="272" text-anchor="middle" font-size="10.5" fill="#555">scrutins passés (2002–2022) · chacun retiré à tour de rôle pour choisir le modèle</text>
<line x1="670.909090909091" y1="206" x2="670.909090909091" y2="256" stroke="#ccc" stroke-width="1" stroke-dasharray="3 3"/>
<circle cx="700.0" cy="232" r="9" fill="#6A4C93" stroke="#FAFAF7" stroke-width="2"/>
<text x="700.0" y="213" text-anchor="middle" font-size="11" font-weight="600" fill="#1A1A2E">2024</text>
<text x="745" y="272" text-anchor="end" font-size="10.5" fill="#555">tenu à l'écart · testé une fois</text>
<text x="20" y="312" font-size="13" fill="#1A1A2E">Bon bloc en tête appelé dans <tspan font-weight="700">81,6 %</tspan> des bureaux</text>
<text x="20" y="338" font-size="11">R² par bloc, test 2024 hors échantillon :  <tspan fill="#E4572E">Gauche 0,74</tspan>   ·   <tspan fill="#4A90D9">Centre+Droite 0,61</tspan>   ·   <tspan fill="#6A4C93">Extrême Droite 0,80</tspan>   ·   <tspan fill="#9AA0A6">Abstention 0,74</tspan></text>
</svg>